<mxfile host="Electron" modified="2024-03-26T15:18:01.312Z" agent="Mozilla/5.0 (Windows NT 10.0; Win64; x64) AppleWebKit/537.36 (KHTML, like Gecko) draw.io/22.1.16 Chrome/120.0.6099.109 Electron/28.1.0 Safari/537.36" etag="awo12gvefWDHY5nGuKMf" version="22.1.16" type="device">
  <diagram name="Page-1" id="P2xKylpIIsdkXFqOm2FA">
    <mxGraphModel dx="880" dy="532" grid="1" gridSize="10" guides="1" tooltips="1" connect="1" arrows="1" fold="1" page="1" pageScale="1" pageWidth="850" pageHeight="1100" math="0" shadow="0">
      <root>
        <mxCell id="0" />
        <mxCell id="1" parent="0" />
        <mxCell id="HGxBnvTy4GZx60MGJXLm-6" value="" style="edgeStyle=orthogonalEdgeStyle;rounded=0;orthogonalLoop=1;jettySize=auto;html=1;" edge="1" parent="1" source="HGxBnvTy4GZx60MGJXLm-1" target="HGxBnvTy4GZx60MGJXLm-2">
          <mxGeometry relative="1" as="geometry" />
        </mxCell>
        <mxCell id="HGxBnvTy4GZx60MGJXLm-1" value="Post Decision IOne Request with status Appeal,AppealRecommended,Reconsideration" style="rounded=1;whiteSpace=wrap;html=1;absoluteArcSize=1;arcSize=14;strokeWidth=2;" vertex="1" parent="1">
          <mxGeometry x="100" y="50" width="280" height="40" as="geometry" />
        </mxCell>
        <mxCell id="HGxBnvTy4GZx60MGJXLm-7" style="edgeStyle=orthogonalEdgeStyle;rounded=0;orthogonalLoop=1;jettySize=auto;html=1;entryX=0.5;entryY=0;entryDx=0;entryDy=0;" edge="1" parent="1" source="HGxBnvTy4GZx60MGJXLm-2" target="HGxBnvTy4GZx60MGJXLm-4">
          <mxGeometry relative="1" as="geometry" />
        </mxCell>
        <mxCell id="HGxBnvTy4GZx60MGJXLm-52" style="edgeStyle=orthogonalEdgeStyle;rounded=0;orthogonalLoop=1;jettySize=auto;html=1;" edge="1" parent="1" source="HGxBnvTy4GZx60MGJXLm-2" target="HGxBnvTy4GZx60MGJXLm-46">
          <mxGeometry relative="1" as="geometry">
            <Array as="points">
              <mxPoint x="125" y="200" />
            </Array>
          </mxGeometry>
        </mxCell>
        <mxCell id="HGxBnvTy4GZx60MGJXLm-2" value="Request having&lt;br&gt;&amp;nbsp;active &lt;br&gt;Assignment" style="strokeWidth=2;html=1;shape=mxgraph.flowchart.decision;whiteSpace=wrap;" vertex="1" parent="1">
          <mxGeometry x="177.5" y="136" width="125" height="120" as="geometry" />
        </mxCell>
        <mxCell id="HGxBnvTy4GZx60MGJXLm-4" value="Routable" style="rounded=1;whiteSpace=wrap;html=1;absoluteArcSize=1;arcSize=14;strokeWidth=2;" vertex="1" parent="1">
          <mxGeometry x="330" y="260" width="60" height="40" as="geometry" />
        </mxCell>
        <mxCell id="HGxBnvTy4GZx60MGJXLm-8" value="no" style="text;html=1;strokeColor=none;fillColor=none;align=center;verticalAlign=middle;whiteSpace=wrap;rounded=0;" vertex="1" parent="1">
          <mxGeometry x="120" y="160" width="60" height="30" as="geometry" />
        </mxCell>
        <mxCell id="HGxBnvTy4GZx60MGJXLm-9" value="yes" style="text;html=1;strokeColor=none;fillColor=none;align=center;verticalAlign=middle;whiteSpace=wrap;rounded=0;" vertex="1" parent="1">
          <mxGeometry x="330" y="160" width="60" height="30" as="geometry" />
        </mxCell>
        <mxCell id="HGxBnvTy4GZx60MGJXLm-11" value="" style="edgeStyle=orthogonalEdgeStyle;rounded=0;orthogonalLoop=1;jettySize=auto;html=1;" edge="1" parent="1" source="HGxBnvTy4GZx60MGJXLm-12">
          <mxGeometry relative="1" as="geometry">
            <mxPoint x="591" y="128" as="targetPoint" />
          </mxGeometry>
        </mxCell>
        <mxCell id="HGxBnvTy4GZx60MGJXLm-12" value="WFM Team assign a Post Decision IOne Request to a particular MD" style="rounded=1;whiteSpace=wrap;html=1;absoluteArcSize=1;arcSize=14;strokeWidth=2;" vertex="1" parent="1">
          <mxGeometry x="426" y="42" width="330" height="48" as="geometry" />
        </mxCell>
        <mxCell id="HGxBnvTy4GZx60MGJXLm-26" value="" style="edgeStyle=orthogonalEdgeStyle;rounded=0;orthogonalLoop=1;jettySize=auto;html=1;" edge="1" parent="1" source="HGxBnvTy4GZx60MGJXLm-20" target="HGxBnvTy4GZx60MGJXLm-21">
          <mxGeometry relative="1" as="geometry" />
        </mxCell>
        <mxCell id="HGxBnvTy4GZx60MGJXLm-20" value="Assignment handler update the assignment for the Post Decision Request" style="rounded=1;whiteSpace=wrap;html=1;absoluteArcSize=1;arcSize=14;strokeWidth=2;" vertex="1" parent="1">
          <mxGeometry x="460" y="130" width="260" height="40" as="geometry" />
        </mxCell>
        <mxCell id="HGxBnvTy4GZx60MGJXLm-29" style="edgeStyle=orthogonalEdgeStyle;rounded=0;orthogonalLoop=1;jettySize=auto;html=1;entryX=0.5;entryY=0;entryDx=0;entryDy=0;" edge="1" parent="1" source="HGxBnvTy4GZx60MGJXLm-21" target="HGxBnvTy4GZx60MGJXLm-23">
          <mxGeometry relative="1" as="geometry" />
        </mxCell>
        <mxCell id="HGxBnvTy4GZx60MGJXLm-44" style="edgeStyle=orthogonalEdgeStyle;rounded=0;orthogonalLoop=1;jettySize=auto;html=1;" edge="1" parent="1" source="HGxBnvTy4GZx60MGJXLm-21">
          <mxGeometry relative="1" as="geometry">
            <mxPoint x="460" y="330" as="targetPoint" />
          </mxGeometry>
        </mxCell>
        <mxCell id="HGxBnvTy4GZx60MGJXLm-21" value="Request having&lt;br&gt;&amp;nbsp;active &lt;br&gt;Assignment" style="strokeWidth=2;html=1;shape=mxgraph.flowchart.decision;whiteSpace=wrap;" vertex="1" parent="1">
          <mxGeometry x="527" y="199" width="125" height="120" as="geometry" />
        </mxCell>
        <mxCell id="HGxBnvTy4GZx60MGJXLm-23" value="Routable" style="rounded=1;whiteSpace=wrap;html=1;absoluteArcSize=1;arcSize=14;strokeWidth=2;" vertex="1" parent="1">
          <mxGeometry x="660" y="340" width="63" height="40" as="geometry" />
        </mxCell>
        <mxCell id="HGxBnvTy4GZx60MGJXLm-24" value="no" style="text;html=1;strokeColor=none;fillColor=none;align=center;verticalAlign=middle;whiteSpace=wrap;rounded=0;" vertex="1" parent="1">
          <mxGeometry x="467" y="280" width="60" height="30" as="geometry" />
        </mxCell>
        <mxCell id="HGxBnvTy4GZx60MGJXLm-25" value="yes" style="text;html=1;strokeColor=none;fillColor=none;align=center;verticalAlign=middle;whiteSpace=wrap;rounded=0;" vertex="1" parent="1">
          <mxGeometry x="681" y="280" width="60" height="30" as="geometry" />
        </mxCell>
        <mxCell id="HGxBnvTy4GZx60MGJXLm-22" value="Not Routable&amp;nbsp;&lt;br&gt;&amp;amp; Deletable if it exists in Index" style="rounded=1;whiteSpace=wrap;html=1;absoluteArcSize=1;arcSize=14;strokeWidth=2;" vertex="1" parent="1">
          <mxGeometry x="410" y="330" width="110" height="50" as="geometry" />
        </mxCell>
        <mxCell id="HGxBnvTy4GZx60MGJXLm-33" value="" style="edgeStyle=orthogonalEdgeStyle;rounded=0;orthogonalLoop=1;jettySize=auto;html=1;" edge="1" parent="1" source="HGxBnvTy4GZx60MGJXLm-34">
          <mxGeometry relative="1" as="geometry">
            <mxPoint x="930" y="127" as="targetPoint" />
          </mxGeometry>
        </mxCell>
        <mxCell id="HGxBnvTy4GZx60MGJXLm-34" value="WFM Team raises unAssignment event for the Post Decision IOne Request" style="rounded=1;whiteSpace=wrap;html=1;absoluteArcSize=1;arcSize=14;strokeWidth=2;" vertex="1" parent="1">
          <mxGeometry x="765" y="41" width="330" height="48" as="geometry" />
        </mxCell>
        <mxCell id="HGxBnvTy4GZx60MGJXLm-35" value="" style="edgeStyle=orthogonalEdgeStyle;rounded=0;orthogonalLoop=1;jettySize=auto;html=1;" edge="1" parent="1" source="HGxBnvTy4GZx60MGJXLm-36" target="HGxBnvTy4GZx60MGJXLm-38">
          <mxGeometry relative="1" as="geometry" />
        </mxCell>
        <mxCell id="HGxBnvTy4GZx60MGJXLm-36" value="Assignment handler Clears the active assignment for the Request" style="rounded=1;whiteSpace=wrap;html=1;absoluteArcSize=1;arcSize=14;strokeWidth=2;" vertex="1" parent="1">
          <mxGeometry x="819" y="129" width="220" height="40" as="geometry" />
        </mxCell>
        <mxCell id="HGxBnvTy4GZx60MGJXLm-37" style="edgeStyle=orthogonalEdgeStyle;rounded=0;orthogonalLoop=1;jettySize=auto;html=1;entryX=0.5;entryY=0;entryDx=0;entryDy=0;" edge="1" parent="1" source="HGxBnvTy4GZx60MGJXLm-38" target="HGxBnvTy4GZx60MGJXLm-39">
          <mxGeometry relative="1" as="geometry" />
        </mxCell>
        <mxCell id="HGxBnvTy4GZx60MGJXLm-38" value="Request having&lt;br&gt;&amp;nbsp;active &lt;br&gt;Assignment" style="strokeWidth=2;html=1;shape=mxgraph.flowchart.decision;whiteSpace=wrap;" vertex="1" parent="1">
          <mxGeometry x="866" y="198" width="125" height="120" as="geometry" />
        </mxCell>
        <mxCell id="HGxBnvTy4GZx60MGJXLm-39" value="Routable" style="rounded=1;whiteSpace=wrap;html=1;absoluteArcSize=1;arcSize=14;strokeWidth=2;" vertex="1" parent="1">
          <mxGeometry x="999" y="339" width="63" height="40" as="geometry" />
        </mxCell>
        <mxCell id="HGxBnvTy4GZx60MGJXLm-40" value="no" style="text;html=1;strokeColor=none;fillColor=none;align=center;verticalAlign=middle;whiteSpace=wrap;rounded=0;" vertex="1" parent="1">
          <mxGeometry x="806" y="279" width="60" height="30" as="geometry" />
        </mxCell>
        <mxCell id="HGxBnvTy4GZx60MGJXLm-41" value="yes" style="text;html=1;strokeColor=none;fillColor=none;align=center;verticalAlign=middle;whiteSpace=wrap;rounded=0;" vertex="1" parent="1">
          <mxGeometry x="1020" y="279" width="60" height="30" as="geometry" />
        </mxCell>
        <mxCell id="HGxBnvTy4GZx60MGJXLm-42" value="" style="edgeStyle=orthogonalEdgeStyle;rounded=0;orthogonalLoop=1;jettySize=auto;html=1;" edge="1" parent="1" source="HGxBnvTy4GZx60MGJXLm-38">
          <mxGeometry relative="1" as="geometry">
            <mxPoint x="822.5" y="339" as="targetPoint" />
            <mxPoint x="866" y="258" as="sourcePoint" />
          </mxGeometry>
        </mxCell>
        <mxCell id="HGxBnvTy4GZx60MGJXLm-45" value="Not Routable&amp;nbsp;&lt;br&gt;&amp;amp; Deletable if it exists in Index" style="rounded=1;whiteSpace=wrap;html=1;absoluteArcSize=1;arcSize=14;strokeWidth=2;" vertex="1" parent="1">
          <mxGeometry x="770" y="339" width="110" height="50" as="geometry" />
        </mxCell>
        <mxCell id="HGxBnvTy4GZx60MGJXLm-46" value="Not Routable&amp;nbsp;&lt;br&gt;&amp;amp; Deletable if it exists in Index" style="rounded=1;whiteSpace=wrap;html=1;absoluteArcSize=1;arcSize=14;strokeWidth=2;" vertex="1" parent="1">
          <mxGeometry x="70" y="250" width="110" height="50" as="geometry" />
        </mxCell>
        <mxCell id="HGxBnvTy4GZx60MGJXLm-53" value="Post Decision Request Intial workflow without Assignment" style="text;html=1;strokeColor=none;fillColor=none;align=center;verticalAlign=middle;whiteSpace=wrap;rounded=0;fontStyle=1" vertex="1" parent="1">
          <mxGeometry x="60" y="12" width="340" height="30" as="geometry" />
        </mxCell>
        <mxCell id="HGxBnvTy4GZx60MGJXLm-54" value="Post Decision request with a manual Assignment" style="text;html=1;strokeColor=none;fillColor=none;align=center;verticalAlign=middle;whiteSpace=wrap;rounded=0;fontStyle=1" vertex="1" parent="1">
          <mxGeometry x="420" y="10" width="320" height="30" as="geometry" />
        </mxCell>
        <mxCell id="HGxBnvTy4GZx60MGJXLm-55" value="Post Decsion Request During UnAssignment scenario" style="text;html=1;strokeColor=none;fillColor=none;align=center;verticalAlign=middle;whiteSpace=wrap;rounded=0;fontStyle=1" vertex="1" parent="1">
          <mxGeometry x="780" y="10" width="320" height="30" as="geometry" />
        </mxCell>
      </root>
    </mxGraphModel>
  </diagram>
</mxfile>
